<svg width="800" height="600" viewBox="0 0 800 600" fill="none" xmlns="http://www.w3.org/2000/svg">
  <rect width="800" height="600" fill="#F8FAFC"/>
  <g filter="url(#filter0_d)">
    <path d="M400 100C250 100 150 200 150 350C150 500 250 600 400 600C550 600 650 500 650 350C650 200 550 100 400 100Z" fill="#EE2624" fill-opacity="0.1"/>
  </g>
  <path d="M300 250H500C511.046 250 520 258.954 520 270V430C520 441.046 511.046 450 500 450H300C288.954 450 280 441.046 280 430V270C280 258.954 288.954 250 300 250Z" fill="white" stroke="#EE2624" stroke-width="2"/>
  <path d="M280 270L400 350L520 270" stroke="#EE2624" stroke-width="2"/>
  <circle cx="400" cy="200" r="40" fill="#EE2624"/>
  <path d="M385 190H415M385 200H415M385 210H415" stroke="white" stroke-width="2" stroke-linecap="round"/>
  <defs>
    <filter id="filter0_d" x="146" y="96" width="508" height="508" filterUnits="userSpaceOnUse" color-interpolation-filters="sRGB">
      <feFlood flood-opacity="0" result="BackgroundImageFix"/>
      <feColorMatrix in="SourceAlpha" type="matrix" values="0 0 0 0 0 0 0 0 0 0 0 0 0 0 0 0 0 0 127 0"/>
      <feOffset/>
      <feGaussianBlur stdDeviation="2"/>
      <feColorMatrix type="matrix" values="0 0 0 0 0 0 0 0 0 0 0 0 0 0 0 0 0 0 0.1 0"/>
      <feBlend mode="normal" in2="BackgroundImageFix" result="effect1_dropShadow"/>
      <feBlend mode="normal" in="SourceGraphic" in2="effect1_dropShadow" result="shape"/>
    </filter>
  </defs>
</svg> 